<?xml version="1.0" standalone="no"?>
<!DOCTYPE svg PUBLIC "-//W3C//DTD SVG 20010904//EN"
 "http://www.w3.org/TR/2001/REC-SVG-20010904/DTD/svg10.dtd">
<svg version="1.0" xmlns="http://www.w3.org/2000/svg"
 width="1016.000000pt" height="1016.000000pt" viewBox="0 0 1016.000000 1016.000000"
 preserveAspectRatio="xMidYMid meet">
<metadata>
Created by potrace 1.11, written by Peter Selinger 2001-2013
</metadata>
<g transform="translate(0.000000,1016.000000) scale(0.100000,-0.100000)"
fill="#000000" stroke="none">
<path d="M4957 9921 c-3 -12 -1 -23 3 -26 5 -3 5 -18 0 -33 -4 -16 -4 -35 1
-43 4 -8 4 -21 -1 -28 -4 -8 -4 -27 0 -42 5 -17 5 -29 0 -29 -6 0 -6 -9 -1
-22 5 -13 5 -33 0 -45 -5 -14 -5 -23 1 -23 6 0 6 -9 0 -25 -5 -14 -5 -27 0
-30 5 -3 5 -18 0 -34 -4 -15 -4 -34 0 -42 5 -7 5 -20 1 -28 -5 -8 -5 -27 -1
-43 5 -16 5 -28 0 -28 -6 0 -6 -9 -1 -22 5 -13 5 -33 0 -45 -5 -14 -5 -23 1
-23 6 0 6 -9 0 -25 -5 -14 -5 -27 0 -30 5 -3 5 -18 0 -33 -4 -16 -4 -35 1 -43
4 -8 4 -21 -1 -28 -4 -8 -4 -27 0 -42 5 -17 5 -29 0 -29 -6 0 -6 -9 -1 -22 5
-13 5 -33 0 -45 -5 -14 -5 -23 1 -23 6 0 6 -9 0 -25 -5 -13 -6 -26 -2 -29 5
-3 6 -21 4 -41 l-4 -36 -171 2 c-152 1 -172 -1 -184 -17 -9 -13 -10 -21 -2
-31 9 -9 8 -13 0 -13 -8 0 -9 -6 -3 -17 5 -10 6 -29 2 -43 -4 -14 -3 -33 2
-42 5 -10 4 -19 -2 -23 -8 -5 -8 -11 0 -20 8 -10 8 -19 0 -34 -7 -13 -7 -27
-2 -38 5 -10 7 -27 5 -38 -2 -11 -5 -25 -5 -32 -1 -7 -13 -16 -27 -22 -61 -23
-367 -124 -378 -124 -7 0 -13 -5 -13 -10 0 -6 -3 -8 -6 -5 -4 5 -94 -22 -164
-49 -8 -4 -17 -7 -20 -7 -3 -1 -11 -5 -17 -9 -7 -5 -13 -6 -13 -3 0 2 -56 -15
-125 -39 -69 -24 -125 -41 -125 -37 0 3 -5 1 -12 -6 -24 -24 -37 -10 -66 71
-17 45 -40 107 -52 137 -12 30 -33 87 -47 125 -14 39 -30 81 -36 95 -6 14 -10
28 -9 33 1 4 -130 7 -291 7 l-294 0 -32 -87 c-17 -49 -38 -101 -46 -118 -11
-25 -23 -58 -30 -85 -1 -3 -7 -18 -14 -35 -7 -16 -22 -55 -33 -85 -11 -30 -23
-64 -28 -75 -5 -11 -30 -76 -55 -145 -26 -69 -50 -134 -55 -145 -5 -11 -19
-47 -31 -80 -11 -33 -27 -74 -35 -92 -8 -17 -14 -38 -14 -46 0 -9 -4 -18 -9
-21 -5 -3 -12 -17 -15 -30 -3 -14 -11 -38 -18 -53 -6 -15 -12 -32 -14 -38 -1
-5 -8 -23 -15 -40 -6 -16 -13 -34 -15 -40 -1 -5 -28 -75 -59 -155 -31 -80 -58
-152 -60 -160 -2 -8 -12 -34 -22 -58 -17 -40 -32 -51 -298 -211 -267 -161
-280 -170 -285 -202 -3 -19 -3 -52 0 -74 3 -22 3 -54 -1 -72 -3 -18 -4 -34 -2
-36 2 -3 3 -103 3 -223 -1 -121 -1 -234 0 -252 0 -22 64 -160 180 -393 l180
-359 540 0 540 0 360 360 360 360 710 0 c420 0 710 -4 710 -10 0 -5 -10 -12
-22 -15 -13 -4 -37 -18 -55 -31 -17 -13 -34 -24 -38 -24 -21 0 -389 -269 -413
-302 -7 -10 -17 -18 -21 -18 -11 0 -75 -57 -204 -180 -130 -125 -233 -232
-307 -320 -19 -23 -40 -48 -47 -55 -9 -10 -182 -12 -808 -13 -438 0 -798 -2
-801 -5 -3 -2 -7 -15 -9 -28 -14 -85 -18 -107 -22 -129 -2 -14 -5 -40 -6 -57
-1 -18 -6 -33 -10 -33 -4 0 -7 -6 -6 -12 3 -16 -10 -108 -18 -128 -3 -8 -7
-24 -8 -35 -3 -23 -12 -79 -20 -115 -3 -14 -8 -43 -10 -64 -3 -22 -10 -59 -15
-83 -6 -24 -12 -58 -15 -76 -2 -17 -7 -43 -9 -57 -3 -14 -15 -79 -26 -145 -12
-66 -23 -131 -26 -145 -3 -14 -7 -38 -10 -55 -3 -16 -7 -41 -10 -55 -9 -44
-15 -84 -19 -115 -2 -16 -4 -30 -5 -30 -2 0 -7 -26 -15 -75 -3 -25 -10 -63
-15 -85 -5 -22 -10 -50 -10 -62 l0 -21 265 0 265 1 24 31 c44 56 119 126 136
126 5 0 10 5 10 10 0 6 9 10 20 10 11 0 20 4 20 9 0 15 135 43 207 43 172 1
171 2 142 -83 -27 -79 -68 -225 -74 -262 -2 -15 -6 -31 -9 -36 -5 -8 -18 -68
-19 -88 0 -7 -3 -13 -6 -13 -3 0 -6 -10 -7 -22 0 -13 -4 -36 -8 -53 -4 -16
-12 -59 -17 -95 -6 -36 -13 -72 -17 -80 -3 -8 -4 -18 -4 -22 1 -4 -2 -29 -8
-55 -5 -27 -12 -73 -15 -103 -20 -188 -16 -175 -57 -173 -36 2 -142 46 -164
67 -6 7 -26 24 -42 38 -57 48 -123 170 -136 252 -4 21 -10 43 -14 50 -5 9 -86
12 -299 11 l-292 0 4 -30 c2 -16 6 -58 10 -91 19 -196 130 -403 291 -545 73
-63 253 -163 334 -184 3 0 21 -6 40 -12 44 -15 217 -49 267 -52 6 -1 14 -9 17
-18 4 -14 17 -18 51 -18 25 0 45 4 45 8 0 4 9 3 20 -3 11 -6 20 -7 20 -2 0 4
27 5 60 2 33 -3 60 -2 60 2 0 5 9 4 20 -2 11 -6 20 -7 20 -3 0 4 54 6 120 3
66 -3 120 -1 120 3 0 4 9 3 20 -3 11 -6 20 -7 20 -2 0 5 18 6 40 2 22 -4 40
-3 40 2 0 5 9 4 20 -2 11 -6 20 -7 20 -2 0 5 18 6 40 2 22 -4 40 -3 40 2 0 5
9 4 20 -2 11 -6 20 -7 20 -3 0 4 54 6 120 3 66 -3 120 -1 120 3 0 4 9 3 20 -3
11 -6 20 -7 20 -2 0 4 27 5 60 2 33 -3 60 -2 60 2 0 5 9 4 20 -2 11 -6 20 -7
20 -2 0 5 18 6 40 2 22 -4 40 -3 40 2 0 5 9 4 20 -2 11 -6 20 -7 20 -2 0 5 18
6 40 2 22 -4 40 -3 40 2 0 5 9 4 20 -2 11 -6 20 -7 20 -2 0 5 18 6 40 2 22 -4
40 -3 40 2 0 5 9 4 20 -2 14 -8 20 -8 20 0 0 8 6 8 20 0 14 -8 20 -8 20 0 0 8
6 8 20 0 11 -6 20 -7 20 -2 0 5 18 6 40 2 22 -4 40 -3 40 2 0 5 9 4 20 -2 11
-6 20 -7 20 -2 0 5 18 6 40 2 22 -4 40 -3 40 2 0 5 9 4 20 -2 14 -8 20 -8 20
0 0 8 6 8 20 0 14 -8 20 -8 20 0 0 8 6 8 20 0 11 -6 20 -7 20 -2 0 5 18 6 40
2 22 -4 40 -3 40 2 0 5 9 4 20 -2 11 -6 20 -7 20 -2 0 5 18 6 40 2 22 -4 40
-3 40 2 0 5 9 4 20 -2 14 -8 20 -8 20 0 0 8 6 8 20 0 14 -8 20 -8 20 0 0 8 6
8 20 0 11 -6 20 -7 20 -2 0 5 18 6 40 2 22 -4 40 -3 40 2 0 5 9 4 20 -2 11 -6
20 -7 20 -2 0 5 18 6 40 2 22 -4 40 -3 40 2 0 5 9 4 20 -2 11 -6 20 -7 20 -2
0 5 18 6 40 2 22 -4 40 -3 40 2 0 5 9 4 20 -2 11 -6 20 -7 20 -2 0 4 27 5 60
2 33 -3 60 -2 60 2 0 5 9 4 20 -2 11 -6 20 -7 20 -3 0 4 54 6 120 3 66 -3 120
-1 120 3 0 4 9 3 20 -3 11 -6 20 -7 20 -2 0 5 18 6 40 2 22 -4 40 -3 40 2 0 5
9 4 20 -2 11 -6 20 -7 20 -2 0 5 18 6 40 2 22 -4 40 -3 40 2 0 5 9 4 20 -2 11
-6 20 -7 20 -3 0 4 54 6 120 3 66 -3 120 -1 120 3 0 4 9 3 20 -3 11 -6 20 -7
20 -2 0 4 27 5 60 2 33 -3 60 -2 60 2 0 5 9 4 20 -2 11 -6 20 -7 20 -2 0 5 18
6 40 2 22 -4 40 -3 40 2 0 5 9 4 20 -2 11 -6 20 -7 20 -2 0 5 18 6 40 2 22 -4
40 -3 40 2 0 5 9 4 20 -2 11 -6 20 -7 20 -2 0 5 18 6 40 2 22 -4 40 -3 40 2 0
5 9 4 20 -2 14 -8 20 -8 20 0 0 8 6 8 20 0 14 -8 20 -8 20 0 0 7 6 8 19 0 11
-5 22 -6 25 -1 3 4 17 6 30 4 24 -5 25 -4 15 28 -6 19 -11 39 -13 44 -3 14
-26 87 -33 105 -3 8 -8 24 -10 34 -2 11 -5 22 -8 24 -2 3 20 29 50 60 30 30
55 59 55 63 0 5 5 9 10 9 6 0 10 7 10 15 0 8 4 15 9 15 8 0 53 67 48 73 -1 1
8 16 21 34 52 74 127 277 159 433 9 44 11 55 13 55 1 0 3 11 5 25 2 14 6 48
10 75 9 67 13 115 20 208 2 43 7 82 10 87 3 5 1 11 -4 14 -5 3 -6 21 -2 38 5
27 6 273 1 273 -1 0 -3 36 -6 80 -6 100 -12 160 -14 160 -1 0 -3 15 -5 34 -3
25 5 50 28 90 65 117 158 322 173 381 2 8 11 38 20 65 23 68 27 79 28 85 1 3
9 34 19 70 24 96 45 187 56 255 6 33 13 74 16 90 8 43 15 93 20 145 2 25 5 45
5 45 3 0 7 40 14 145 4 52 9 113 11 135 3 22 7 127 9 233 3 106 8 196 11 201
3 5 1 12 -5 16 -7 4 -7 12 0 24 5 10 6 21 3 25 -3 3 -7 21 -8 40 -1 27 4 37
22 45 17 8 23 7 23 -1 0 -9 3 -9 12 0 7 7 17 8 29 2 11 -6 20 -6 24 -1 3 6 17
6 35 1 18 -5 32 -5 35 1 4 5 14 5 26 -1 10 -6 19 -7 19 -2 0 4 25 5 56 2 30
-3 57 -3 60 2 3 4 14 3 25 -2 11 -6 19 -7 19 -1 0 5 14 6 35 1 20 -4 38 -4 41
1 3 5 13 5 25 -1 14 -8 19 -7 19 1 0 9 3 9 14 0 10 -8 16 -9 21 -1 4 7 12 7
26 0 10 -6 19 -7 19 -3 0 4 34 6 76 3 42 -3 78 -2 81 2 2 5 13 3 24 -2 10 -6
19 -7 19 -3 0 4 34 6 76 3 42 -3 78 -2 81 2 2 5 13 3 24 -2 14 -8 19 -7 19 1
0 9 3 9 14 0 10 -8 16 -9 21 -1 4 7 12 7 26 0 11 -6 19 -7 19 -1 0 5 14 6 35
1 20 -4 38 -4 41 1 3 5 13 5 25 -1 10 -6 19 -7 19 -2 0 4 25 5 56 2 30 -3 57
-3 60 2 3 4 14 3 25 -2 11 -6 19 -7 19 -1 0 5 14 6 35 1 20 -4 38 -4 41 1 3 5
13 5 25 -1 14 -8 19 -7 19 1 0 9 3 9 14 0 10 -8 16 -9 21 -1 4 7 12 7 26 0 10
-6 19 -7 19 -3 0 4 34 6 76 3 42 -3 78 -2 81 2 2 5 13 3 24 -2 10 -6 19 -7 19
-2 0 4 15 6 34 4 26 -3 34 0 37 15 4 14 3 358 0 411 -1 9 -18 13 -63 11 -35
-1 -67 0 -73 1 -5 1 -14 1 -20 0 -5 -1 -53 -1 -105 0 -113 1 -93 1 -235 0 -63
-1 -119 1 -124 4 -5 4 -12 3 -14 -1 -3 -5 -31 -7 -64 -5 -73 3 -53 3 -223 3
-80 0 -152 0 -160 1 -8 0 -19 -1 -25 -2 -21 -5 -75 0 -75 8 0 7 31 44 89 107
44 48 113 110 146 131 17 10 35 24 40 30 11 12 167 122 285 199 41 27 77 52
80 55 3 3 16 11 30 19 82 46 295 233 345 303 57 80 109 192 131 283 34 141 23
373 -23 474 -8 18 -16 39 -17 45 -4 19 -53 104 -86 150 -26 35 -114 121 -155
151 -105 78 -237 133 -385 160 -144 27 -412 6 -515 -40 -16 -7 -39 -15 -50
-17 -11 -1 -22 -6 -25 -9 -3 -4 -25 -17 -50 -29 -24 -12 -69 -41 -99 -64 -51
-38 -67 -54 -143 -140 -62 -71 -152 -259 -173 -363 -5 -21 -10 -45 -12 -53 -9
-38 -13 -73 -19 -177 l-7 -113 247 1 246 0 1 22 c0 23 7 91 13 142 14 114 71
245 137 312 64 67 137 98 237 100 50 1 98 -4 122 -12 22 -8 40 -11 40 -8 0 3
9 -2 21 -13 12 -10 24 -18 28 -16 13 5 81 -55 112 -101 54 -79 80 -233 56
-332 -15 -63 -20 -75 -28 -75 -5 0 -9 -6 -9 -12 0 -19 -51 -92 -101 -146 -52
-54 -116 -112 -124 -112 -3 0 -11 -5 -18 -10 -47 -39 -106 -78 -111 -73 -3 4
-6 2 -6 -4 0 -6 -13 -16 -30 -23 -16 -7 -30 -17 -30 -22 0 -5 -8 -12 -17 -15
-21 -8 -87 -55 -91 -66 -2 -4 -8 -5 -13 -1 -5 3 -9 1 -9 -5 0 -6 -14 -18 -32
-27 -17 -9 -36 -20 -42 -25 -56 -47 -72 -59 -78 -59 -4 0 -13 -6 -20 -12 -7
-7 -32 -26 -55 -42 -24 -16 -43 -33 -43 -37 0 -5 -6 -9 -13 -9 -16 0 -181
-159 -222 -215 -16 -22 -32 -42 -35 -45 -18 -18 -116 -192 -120 -215 -2 -5 -6
-20 -11 -33 -5 -13 -12 -34 -15 -47 -9 -38 -24 -30 -25 13 0 20 -2 48 -4 62
-4 27 -14 117 -19 165 -2 17 -7 50 -12 75 -5 25 -9 50 -10 55 -3 27 -17 97
-32 160 -9 39 -17 72 -17 75 -3 21 -28 118 -32 130 -4 8 -7 18 -8 23 -2 4 -3
8 -5 10 -2 2 -8 25 -13 52 -2 8 -6 18 -10 21 -4 4 -7 18 -7 30 0 13 -4 26 -10
29 -5 3 -10 12 -10 19 0 8 -8 31 -17 52 -9 22 -18 44 -19 51 -4 21 -65 152
-121 261 -63 120 -188 311 -255 387 -14 16 -36 41 -48 55 -155 180 -385 361
-600 471 -47 24 -86 47 -88 52 -2 4 -14 7 -27 7 -13 0 -26 4 -29 9 -3 4 -34
18 -68 30 -35 12 -70 25 -78 28 -8 4 -18 5 -22 5 -5 -1 -8 2 -8 6 0 4 -8 8
-17 9 -10 1 -52 12 -93 24 -129 37 -261 63 -385 74 -38 4 -72 10 -76 13 -3 4
-16 34 -28 67 -37 94 -135 292 -191 385 -93 155 -242 334 -345 416 -21 16 -44
35 -51 42 -7 6 -17 12 -22 12 -5 0 -15 7 -22 16 -17 20 -163 89 -220 104 -66
18 -79 20 -141 26 -51 5 -57 4 -62 -15z m-1747 -1943 c12 -35 28 -75 36 -90 9
-16 13 -28 9 -28 -3 0 1 -16 9 -35 9 -20 15 -36 15 -38 0 -3 11 -37 27 -81 8
-21 11 -42 7 -47 -9 -9 -323 -199 -328 -199 -5 0 12 59 24 85 12 26 23 57 27
72 1 7 14 44 29 83 15 39 28 76 29 83 2 6 6 19 9 27 20 45 35 100 29 100 -4 0
-2 4 3 8 6 4 19 33 29 65 11 31 20 57 21 57 2 0 12 -28 25 -62z m1093 -201 c3
5 57 6 121 3 64 -3 116 -2 116 2 0 4 14 3 30 -2 21 -6 30 -5 30 3 0 8 3 8 12
-1 8 -8 15 -8 24 -1 23 19 29 -13 30 -158 l2 -141 -45 -11 c-24 -7 -48 -9 -54
-6 -5 4 -9 2 -9 -3 0 -8 -34 -16 -125 -28 -11 -1 -60 -5 -109 -8 l-88 -5 4 34
c2 19 0 35 -4 35 -5 0 -4 9 2 19 7 14 7 22 0 26 -7 5 -8 11 -1 19 6 6 6 18 2
25 -5 8 -5 27 -1 42 5 18 5 29 -1 29 -6 0 -6 7 1 19 7 14 7 22 0 26 -7 5 -8
11 -1 19 6 7 6 18 1 25 -10 17 -2 43 11 35 5 -3 9 0 9 6 0 7 6 8 19 0 11 -5
22 -7 24 -3z m3894 -1412 c0 -8 -4 -12 -9 -9 -5 3 -6 10 -3 15 9 13 12 11 12
-6z m-4367 -1843 c0 -7 -44 -87 -51 -92 -3 -3 -32 -54 -64 -115 -32 -60 -62
-116 -68 -122 -5 -7 -6 -13 -3 -13 4 0 -2 -13 -14 -30 -12 -16 -19 -30 -15
-30 3 0 -1 -10 -10 -22 -12 -19 -25 -23 -65 -23 -28 0 -50 3 -50 7 0 4 -11 3
-25 -2 -17 -6 -25 -6 -25 1 0 6 -5 7 -11 3 -7 -4 -37 -9 -68 -11 -46 -3 -84
-8 -98 -12 -2 -1 -6 -2 -10 -2 -5 -1 -19 -6 -33 -11 -14 -5 -32 -11 -41 -13
-61 -12 -243 -130 -268 -172 -6 -11 -11 -13 -12 -5 -5 38 -5 58 0 67 3 6 6 18
7 28 1 9 2 18 4 20 1 1 3 16 6 32 6 49 13 90 14 90 1 0 4 14 6 30 3 17 9 55
15 85 6 30 12 64 13 75 2 11 6 34 9 50 4 17 9 50 12 74 4 23 10 53 15 66 5 13
6 25 3 28 -3 3 -3 9 0 14 5 8 827 13 827 5z"/>
<path d="M1140 7798 c-1 -480 -2 -908 -4 -950 -6 -114 -23 -184 -54 -220 -8
-10 -12 -18 -9 -18 3 0 -6 -12 -20 -26 -25 -25 -113 -70 -113 -57 0 3 -6 1
-12 -3 -29 -20 -198 -5 -251 23 -81 41 -147 155 -150 255 -1 27 -5 48 -8 48
-3 0 -6 35 -6 78 -1 42 -2 89 -2 103 l-1 27 -191 -2 c-105 0 -193 2 -196 7 -2
4 -9 5 -14 1 -19 -11 -58 -14 -64 -4 -4 7 -13 7 -26 -1 -19 -10 -20 -18 -15
-192 3 -100 9 -197 15 -215 5 -18 10 -35 10 -37 -1 -43 72 -207 119 -264 53
-67 108 -118 167 -158 57 -39 139 -81 167 -87 7 -2 20 -6 28 -9 122 -52 423
-67 595 -31 17 3 35 7 40 8 38 8 153 51 166 62 8 8 19 14 23 14 4 0 33 18 65
39 67 46 159 143 187 198 10 21 22 40 26 43 7 5 26 51 34 80 2 8 10 38 18 67
38 135 40 194 40 1178 l1 910 -282 3 -283 2 0 -872z"/>
<path d="M974 4990 c-32 -145 -83 -246 -169 -332 -67 -68 -90 -88 -101 -88 -3
0 -18 -9 -34 -20 -52 -37 -181 -83 -265 -95 -16 -3 -48 -7 -70 -10 -22 -4 -76
-8 -120 -10 -44 -2 -83 -4 -86 -4 -3 -1 -5 -100 -5 -221 l0 -220 362 0 c281 0
363 -3 366 -12 2 -7 4 -433 4 -946 l-1 -932 295 2 295 3 1 1453 c0 1307 -1
1452 -15 1453 -9 0 -114 1 -234 2 l-218 2 -5 -25z"/>
<path d="M9264 5012 c-23 -5 -49 -31 -92 -94 -18 -25 -39 -54 -48 -62 -8 -9
-13 -16 -9 -16 3 0 -4 -10 -16 -22 -11 -13 -35 -43 -52 -68 -17 -25 -33 -47
-37 -50 -3 -3 -24 -30 -45 -60 -22 -30 -45 -62 -52 -70 -7 -8 -35 -46 -63 -85
-28 -38 -56 -77 -63 -85 -7 -9 -25 -33 -42 -55 -16 -22 -35 -46 -42 -53 -7 -7
-13 -17 -13 -21 0 -4 -8 -16 -17 -27 -40 -44 -83 -103 -83 -113 0 -5 -6 -14
-13 -18 -7 -4 -44 -51 -82 -103 -38 -52 -74 -100 -82 -106 -7 -6 -10 -14 -6
-17 3 -4 -2 -9 -11 -13 -9 -3 -16 -12 -16 -19 0 -7 -3 -15 -7 -17 -5 -1 -80
-100 -168 -218 -88 -118 -166 -221 -172 -228 -7 -7 -13 -17 -13 -21 0 -4 -10
-18 -21 -30 -21 -22 -22 -32 -23 -295 l-1 -272 595 1 c327 0 605 -1 618 -4
l22 -3 0 -334 0 -334 280 0 280 0 2 337 3 336 190 1 190 1 1 235 c1 220 -4
269 -26 255 -9 -5 -28 -6 -196 -4 -62 1 -117 -1 -122 -5 -6 -3 -13 -2 -17 4
-4 6 -11 8 -16 5 -5 -4 -9 333 -9 872 l0 878 -243 0 c-134 0 -252 -2 -263 -3z
m-54 -1247 c0 -513 0 -512 -34 -506 -27 5 -695 3 -704 -3 -22 -13 -19 23 4 47
13 14 24 31 24 37 0 5 4 10 8 10 4 0 16 13 25 30 10 16 23 35 30 42 7 7 39 49
71 93 33 44 63 82 68 83 4 2 8 9 8 16 0 7 8 21 18 32 9 10 62 80 117 154 55
74 105 142 112 150 6 8 37 49 67 90 31 41 59 80 63 85 5 6 21 28 38 50 16 22
37 49 47 59 10 11 18 23 18 28 0 4 5 8 10 8 7 0 10 -175 10 -505z"/>
<path d="M2810 1655 c-8 -9 -12 -43 -11 -87 0 -40 0 -104 0 -143 0 -38 0 -79
0 -90 0 -21 29 -48 43 -39 5 3 59 5 121 5 61 -1 213 0 337 0 124 1 232 1 240
0 8 0 116 0 240 0 124 1 232 1 240 0 8 0 116 0 240 0 124 1 232 1 240 0 8 0
116 0 240 0 124 1 232 1 240 0 8 0 44 0 80 0 36 1 72 1 80 1 8 -1 116 -1 240
-1 124 1 232 1 240 0 8 0 116 0 240 0 124 1 232 1 240 0 8 0 116 0 240 0 124
1 232 1 240 0 8 0 116 0 240 0 124 1 232 1 240 0 8 0 116 0 240 0 124 1 232 1
240 0 51 -3 165 1 172 5 4 3 8 0 8 -6 0 -6 4 -8 10 -5 5 3 33 6 61 7 38 0 49
3 45 14 -3 7 -2 15 2 18 8 5 6 91 -2 112 -2 6 0 17 4 24 5 8 4 22 -1 31 -5 11
-5 27 1 43 5 15 6 26 0 26 -5 0 -5 12 -1 28 13 48 4 60 -45 64 -25 2 -48 0
-50 -3 -2 -4 -20 -3 -39 1 -19 4 -37 5 -39 1 -2 -3 -57 -4 -121 -1 -64 3 -119
2 -121 -1 -2 -4 -20 -3 -39 1 -19 4 -37 5 -39 1 -2 -3 -57 -4 -121 -1 -64 3
-118 3 -120 0 -2 -3 -128 -3 -280 0 -152 3 -278 3 -280 0 -2 -3 -56 -3 -120 0
-64 3 -118 3 -120 0 -2 -3 -128 -3 -280 0 -152 3 -278 3 -280 0 -2 -3 -56 -3
-120 0 -64 3 -119 2 -121 -1 -2 -4 -20 -3 -39 1 -19 4 -37 5 -39 1 -2 -3 -57
-4 -121 -1 -64 3 -119 2 -121 -1 -2 -4 -20 -3 -39 1 -19 4 -37 5 -39 1 -2 -3
-57 -4 -121 -1 -64 3 -119 2 -121 -1 -2 -4 -20 -3 -39 1 -19 4 -37 5 -39 1 -2
-3 -57 -4 -121 -1 -64 3 -118 3 -120 0 -2 -3 -128 -3 -280 0 -152 3 -278 3
-280 0 -2 -3 -56 -3 -120 0 -64 3 -118 3 -120 0 -2 -3 -128 -3 -280 0 -152 3
-278 3 -280 0 -2 -3 -56 -3 -120 0 -64 3 -119 2 -121 -1 -2 -4 -20 -3 -39 1
-20 4 -38 4 -41 -1 -3 -5 -13 -5 -24 1 -13 7 -21 6 -30 -5z"/>
<path d="M2440 580 l0 -360 2879 0 c2294 0 2880 3 2884 13 2 6 0 20 -4 29 -6
10 -5 19 1 23 8 5 8 11 0 20 -8 10 -8 19 0 34 7 15 8 27 0 40 -7 14 -7 22 0
26 8 5 8 11 0 20 -8 10 -8 19 0 34 7 15 8 27 0 40 -7 14 -7 22 0 26 8 5 8 11
0 20 -8 10 -8 19 0 34 7 15 8 27 0 40 -7 14 -7 22 0 26 8 5 8 11 0 20 -8 10
-8 19 0 34 7 15 7 21 0 21 -8 0 -8 6 0 20 7 14 8 26 0 39 -7 14 -7 22 0 26 8
5 8 11 0 20 -8 10 -8 19 0 34 7 15 7 21 0 21 -7 0 -8 6 -2 18 5 9 7 23 5 29
-4 10 -590 13 -2884 13 l-2879 0 0 -360z"/>
</g>
</svg>
