<svg xmlns="http://www.w3.org/2000/svg" viewBox="0 0 100 100"><title>new_window</title><path d="M75.788 18L46.564 47.224c-1.716 1.716-1.718 4.504 0 6.223 1.715 1.714 4.504 1.718 6.223 0L82 24.233v9.77C82 36.206 83.79 38 86 38c2.205 0 4-1.79 4-3.997V13.997c0-1.1-.447-2.1-1.17-2.824-.725-.725-1.724-1.173-2.827-1.173H65.997C63.794 10 62 11.79 62 14c0 2.205 1.79 4 3.997 4h9.79zM90 58V38.985 80.03c0 5.506-3.967 9.97-8.867 9.97H18.867C13.97 90 10 85.527 10 80.03V19.97c0-5.506 3.967-9.97 8.867-9.97h42.7H42c2.21 0 4 1.79 4 4s-1.79 4-4 4H20.278C19.005 18 18 19.195 18 20.67v58.66c0 1.45 1.02 2.67 2.278 2.67h59.444C80.995 82 82 80.805 82 79.33V58c0-2.21 1.79-4 4-4s4 1.79 4 4z" fill="#000" fill-rule="evenodd"/></svg>