<svg width="200" height="200" xmlns="http://www.w3.org/2000/svg" viewBox="0 0 100 100"><path d="M36.625 35.954h31.902l-8.653 8.652c-.88.878-.88 2.303 0 3.182.44.44 1.015.66 1.59.66s1.152-.22 1.592-.66L75.55 35.296c.103-.104.196-.218.278-.34.02-.033.036-.07.056-.103.056-.092.11-.184.15-.284.02-.046.03-.096.046-.143.03-.092.064-.182.084-.278.03-.146.045-.295.045-.446s-.017-.3-.046-.445c-.02-.098-.053-.188-.084-.28-.017-.046-.025-.095-.045-.14-.04-.1-.096-.193-.15-.285-.02-.034-.035-.07-.057-.103-.082-.123-.176-.237-.28-.34l-12.49-12.49c-.88-.88-2.303-.88-3.182 0-.88.877-.88 2.302 0 3.18l8.65 8.652h-31.9c-9.835 0-17.835 8-17.835 17.834 0 1.243 1.01 2.25 2.25 2.25s2.25-1.007 2.25-2.25c0-7.352 5.982-13.334 13.335-13.334zM78.96 48.462c-1.243 0-2.25 1.007-2.25 2.25 0 7.353-5.982 13.334-13.335 13.334H31.473l8.653-8.652c.88-.878.88-2.303 0-3.182-.88-.88-2.303-.88-3.182 0L24.45 64.704c-.103.104-.196.218-.278.34-.02.032-.034.066-.053.1-.058.092-.113.186-.155.288-.02.044-.027.093-.043.14-.032.09-.066.183-.086.28-.03.146-.045.294-.045.445s.017.3.046.445c.02.097.054.19.086.28.016.047.024.095.043.14.042.102.098.195.154.29.018.03.03.066.052.097.082.122.176.236.28.34l12.49 12.49c.44.44 1.015.66 1.59.66s1.152-.22 1.592-.66c.88-.877.88-2.302 0-3.18l-8.65-8.652h31.9c9.835 0 17.835-8 17.835-17.834 0-1.245-1.01-2.252-2.25-2.252z"/></svg>